<?xml version="1.0" encoding="utf-8"?>
<!-- Generator: Adobe Illustrator 23.0.1, SVG Export Plug-In . SVG Version: 6.00 Build 0)  -->
<svg version="1.1" id="Camada_1" xmlns="http://www.w3.org/2000/svg" xmlns:xlink="http://www.w3.org/1999/xlink" x="0px" y="0px"
	 viewBox="0 0 1366 768" style="enable-background:new 0 0 1366 768;" xml:space="preserve">
<style type="text/css">
	.st0{fill:#111111;}
	.st1{fill:#E81328;}
	.st2{fill:#E9FBFF;stroke:#111111;stroke-width:3;stroke-miterlimit:10;}
	.st3{fill:#3097FE;}
	.st4{fill:#111111;stroke:#000000;stroke-miterlimit:10;}
</style>
<path class="st0" d="M568,594c2.26,10.46,4,20,0,24c-5,0.1-9.99-0.19-14.94-0.8c-6.97-0.86-10.47-1.21-14.72-2.72
	c-4.9-1.74-6.27-3.21-13.33-5.49c-4.25-1.37-7.09-1.91-9.64-0.55c-1.9,1.01-2.86,2.67-3.36,3.55c-2.41,4.17-1.37,8.66-1,10
	c-8.7-2.67-16.32,2.68-17,8c-0.59,4.58,3.79,10.49,11,12c-0.29,0.41-5.45,7.83-2.5,12.5c1.27,2.01,3.78,3.1,8.5,3.5
	c5.09,0.43,15.95,0.35,31.5-7.5c20.63-8.8,37.44-11.32,49-12c12.48-0.73,26.06,0.27,27.5-4.5c1.11-3.67-5.62-8.72-6-9
	c-7.37-5.43-13.73-2.33-20-6c-3.53-2.07-7.38-6.78-8.5-18.5L568,594z"/>
<path class="st0" d="M616.5,602.5c3.31,11.14,5.66,21.8,3,30c-22.22-2.57-45.67-7.16-58-2c-3.39,1.42-2.72,3.85,0,6
	c-10.98,3.82-18.48,9.73-18,19c0.35,6.79,6.01,9.23,14,9c-3.38,4.55-4.15,9.46,1,13c7.32,5.04,14.86,3.97,23,0
	c12.34-6.01,73.1-18.44,84-23c4.11-1.72,5.74-8.46,4.53-12.36c-2.07-6.68-13.97-5.3-19.1-4.36c-2.82,0.51-5.62,1.13-8.42,1.72
	c-6.87,1.46-8.31-18.28-9-39L616.5,602.5z"/>
<path class="st1" d="M506.5,157.5c-4.91-25.28,15.44-39.62,22.32-51.37C561.77,49.84,642.31,45.97,642,45
	c-0.16-0.51-20.43,4.16-48,16c0,0-54.08,23.22-58.5,42.5c0,0.01,0,0.01,0,0.02c0.24,0.43,24.84-28.62,56.5-35.52
	c4.79-1.04,8.91-1.4,9-1c0.19,0.83-17.63,1.98-34,13c-13.35,8.98-23.73,23.18-24.12,22.82c-0.05-0.04,0.07-0.25,0.11-0.3
	C545.19,99.4,587.74,57.09,641,51c0.42-0.05,5.87-0.66,6,0c0.31,1.5-28.31,3.27-56,19c-15.32,8.7-25.89,15.41-32.8,22.12
	c-2.75,2.67-8.29,10.4-8.18,10.54c0.01,0.01,0.02,0.01,0.02,0.01c0.43,0.03,7.06-7.93,17.38-15.76C577.36,79.39,599,74,599,74
	s-13.65,2.96-26.43,11.16c-11.61,7.45-22.51,20.27-21.81,19.15c0.7-1.11,17.89-14.66,37.48-24.12C614.69,67.42,647.51,65.99,648,66
	c1.1,0.02-32.74,3.8-56.58,17.01c-17.01,9.43-28.48,21.55-27.7,21.71c0.53,0.11,6.98-7.24,19.76-13.61
	C593.61,86.06,610.7,82.63,611,83c0.18,0.23-15.36,4.54-24.86,10.13c-12.31,7.24-19.21,14.95-17.78,12.62
	c0.91-1.48,13.45-9.33,31.76-17.67C623.47,77.45,653.68,80.01,654,80c0.05,0-29.42-0.6-52.06,10.87
	c-16.94,8.58-28.75,16.08-28.72,16.09c2.2,0.57,4.42,1.18,6.66,1.82c24.44,6.96,50.75,17.25,67.63,17.72c6.25,0.17,24-7,24-7
	s1.5,14.5-8,20c2.98,3.28,17-5,17-5s1.5,10.5-11,23c3.52,3.14,16-10,16-10c-0.9,10.12-30.9,115.74-38,155
	c-3.42,18.94-5.34,49.72,1,77l59,180c-18.64,17.22-40.53,20.1-64,16c-0.78,19.16-5.99,31.67-16,37c-10.34,5.59-23.74-1.77-39-17
	c-1.43,6.46-6.68,10.7-17,12c-28.59-23.44-54.91-47.2-59-74c-34.38-32.12-56.03-69.33-54-116c1.45-36.25,12.14-66.44,36-88l52-47
	C553,254,543,205,506.5,157.5z"/>
<path class="st0" d="M699,485c24.6-18.23,51.29-27.61,81-26c1.96,2.88-1.13,6.68-7,11c45.51-13.57,80.42-24.06,97-20
	c-0.14,9.08-8.63,19.2-26.5,30.5c24.88-7.96,47.99-13.57,59-8c5.33,17.57-28.79,36.96-77,57c-17.29,5.93-37.06,9.14-59,10
	c19.4,3.58,33.56,8.87,39,17c-13.17,14.72-38.5,16.1-67,14c-28.58-3.71-58.47-13.25-82-33l8-49L699,485z"/>
<path class="st0" d="M553.22,318.09c8.94-1.52,17.29,2.07,26.04,5.75c8.22,3.46,15.89,8.16,22.72,13.9c2.38,2,4.66,4.11,6.83,6.33
	c1.11,1.13,2.19,2.29,3.24,3.47c0.84,0.94,1.88,2.83,2.95,3.46c8.07,4.7,14.31,10.64,17,19c27.81,8.73,50.5,49.5,37,49
	c8.89,9.94,13.5,18.5,6.5,23.5c21.18,22.42,27.74,35.23,16,36c25.97,22.7,29.84,35.44,0,33c20.86,12.99,28.32,23.4,16,30
	c-7.79,8.51-38.19,1.02-75-11c-15.57-5.08-31.34-9.95-46-17.36c-15.92-8.05-27.14-18.57-37.76-32.66
	c-4.87-6.46-9.45-13.14-13.64-20.07c-5.73-9.48-10.79-19.51-13.49-30.3c-2.88-11.5-2.56-23.7-2.29-35.47
	c0.3-12.94,2.05-39.21,6.51-51.36c2.71-7.36,11.47-18.94,21.04-23.24C549.03,319.08,551.14,318.45,553.22,318.09z"/>
<path class="st0" d="M614,350c7.12,11.6,11.59,22.43,5,30c5.3,11.78,5.44,19.43-2,21c11.12,20.89,15.11,35.55,4,37
	c17.98,35.42,20.88,54,0,46c20.83,29.25,16.14,41-13,36c30.22,15.05,55.63,23.74,64,10c3.01-6.97-5.92-17.82-20.5-30.5
	c10.54,4.06,19.32,5.53,24,1c2.55-6.73-3.96-17.64-18-32c5.91,0.86,7.02-2.2,6-7c1.21-8.47-7.27-19.76-19-32
	c5.15,1.89,6.76-1.52,5-10l-8-14c5.95,3.67,4.15-6.12,0-20C638.36,372.75,628.04,361.09,614,350z"/>
<path class="st0" d="M631,368c19.94,2.94,46,42,42,47c1.59,0.42,1.13,5.34-3,5c1.74,2.68,21.41,15.84,7,24
	c14.62,4.83,18.04,19.82,21,29c1.2,4.75-2.11,6.14-5.5,6.5c13,12,22.94,21.33,20.5,27.5c-0.05,5.95-6.39,7.56-19,5
	c13.5,9.2,22.59,13.68,20,24c-4.43,16.26-33.36,8.98-61.5,1.5c12.78-0.32,17-4,19.5-10.5c-2.29-9.18-9.93-18.03-20.5-27.5
	c10.14,3.23,19.78,7.08,24-1c0.02-9.2-19-30-18.5-30.5c2.5,0.5,7.94-3.22,6.5-6.5c1.43-2.26-7.12-21.03-18-31
	c4.5-1.26,5.81-3.94,4-8c-0.8-0.28-11.5-19.5-7-17c0.65,0.28,3.55-5.2,1-12L631,368z"/>
<ellipse transform="matrix(0.8902 -0.4556 0.4556 0.8902 -10.7335 282.8554)" class="st2" cx="581.38" cy="163.69" rx="20.57" ry="20.68"/>
<ellipse transform="matrix(0.9062 -0.4229 0.4229 0.9062 -15.348 262.5558)" class="st3" cx="584" cy="165.87" rx="12.5" ry="16.43"/>
<circle class="st4" cx="583.5" cy="163.5" r="6.5"/>
<path class="st0" d="M541,176c19.83-8.49,75.98-12.1,86,7c13,24.8-29.98,107.34-56,97c-14.4-5.72-42.27-68.83-51-88
	C517.26,185.99,534.93,178.6,541,176z"/>
<path class="st0" d="M508,264c-3.9,15.12-20.07,19.29-20.07,19.29S469.9,223.26,471,213c1.88-17.55,23.04-51.12,40-56
	c8.22-2.36,24.6,2.55,33,9c5,3,21.14,20.76,23,22c3,2,13.15,3.85,17.58,3.26c4.35-0.59,2.88,40.84-10.58,67.74c-3,6-7,7-12,10
	c-8.71,5.23-30.39,9.49-39.5,1.5c13.76-8.37,20.44-18.86,15-33C505.39,230.73,514.01,236.87,508,264z"/>
</svg>
